<?xml version="1.0" standalone="no"?>
<!DOCTYPE svg PUBLIC "-//W3C//DTD SVG 20010904//EN"
 "http://www.w3.org/TR/2001/REC-SVG-20010904/DTD/svg10.dtd">
<svg version="1.0" xmlns="http://www.w3.org/2000/svg"
 width="700.000000pt" height="700.000000pt" viewBox="0 0 700.000000 700.000000"
 preserveAspectRatio="xMidYMid meet">
<metadata>
Created by potrace 1.11, written by Peter Selinger 2001-2013
</metadata>
<g transform="translate(0.000000,700.000000) scale(0.100000,-0.100000)"
fill="#000000" stroke="none">
<path d="M4484 6349 c-70 -9 -144 -34 -239 -82 -266 -132 -405 -323 -393 -540
6 -104 35 -164 114 -236 118 -108 260 -156 434 -148 235 11 437 132 527 314
32 65 37 86 41 162 5 101 -10 166 -63 271 -99 196 -240 284 -421 259z"/>
<path d="M2869 6089 c-103 -15 -274 -96 -374 -178 -122 -100 -186 -216 -193
-347 -6 -117 14 -172 92 -250 164 -163 419 -198 652 -88 218 102 323 301 269
508 -9 33 -31 89 -50 125 -93 177 -226 254 -396 230z"/>
<path d="M3690 4574 c-121 -22 -238 -51 -321 -80 -642 -223 -1165 -783 -1289
-1379 -47 -221 -64 -566 -40 -765 76 -610 405 -1048 914 -1214 411 -134 974
-89 1357 110 201 105 330 229 415 399 75 152 70 245 -14 245 -58 0 -127 -47
-238 -163 -182 -189 -320 -269 -499 -292 -234 -29 -495 158 -640 459 -54 112
-54 111 43 151 276 113 605 342 819 568 270 285 465 642 518 945 24 134 20
311 -9 424 -71 278 -266 478 -553 564 -78 24 -107 27 -263 30 -96 1 -186 0
-200 -2z m139 -372 c82 -61 123 -239 102 -449 -50 -522 -326 -1049 -696 -1332
l-30 -23 -6 24 c-14 48 -9 406 7 530 60 471 181 884 323 1106 58 90 104 135
165 163 49 23 87 17 135 -19z"/>
</g>
</svg>
